<svg width="149" height="57" viewBox="0 0 149 57" fill="none" xmlns="http://www.w3.org/2000/svg">
<path d="M81.4247 27.4C81.4247 19.984 75.5567 14.296 68.3207 14.296C61.0847 14.296 55.2167 19.984 55.2167 27.4C55.2167 34.816 61.0847 40.504 68.3207 40.504C70.4447 40.504 72.4607 40 74.2247 39.136L76.9247 41.98L81.0647 38.308L78.5447 35.644C80.3447 33.412 81.4247 30.568 81.4247 27.4ZM68.3207 34.888C64.2167 34.888 60.9767 31.9 60.9767 27.4C60.9767 22.9 64.2167 19.912 68.3207 19.912C72.4247 19.912 75.6647 22.9 75.6647 27.4C75.6647 28.948 75.2687 30.316 74.6207 31.468L70.5887 27.184L66.4487 30.856L70.0847 34.708C69.5087 34.816 68.9327 34.888 68.3207 34.888ZM90.2075 33.16H102.988C103.132 32.476 103.204 31.756 103.204 31C103.204 25.564 99.3155 21.496 94.0595 21.496C88.3715 21.496 84.4835 25.636 84.4835 31C84.4835 36.364 88.2995 40.504 94.4555 40.504C97.8755 40.504 100.54 39.244 102.304 36.796L97.9835 34.312C97.2635 35.104 96.0035 35.68 94.5275 35.68C92.5475 35.68 90.8915 35.032 90.2075 33.16ZM90.0995 29.128C90.6035 27.292 91.9715 26.284 94.0235 26.284C95.6435 26.284 97.2635 27.04 97.8395 29.128H90.0995ZM111.635 33.16H124.415C124.559 32.476 124.631 31.756 124.631 31C124.631 25.564 120.743 21.496 115.487 21.496C109.799 21.496 105.911 25.636 105.911 31C105.911 36.364 109.727 40.504 115.883 40.504C119.303 40.504 121.967 39.244 123.731 36.796L119.411 34.312C118.691 35.104 117.431 35.68 115.955 35.68C113.975 35.68 112.319 35.032 111.635 33.16ZM111.527 29.128C112.031 27.292 113.399 26.284 115.451 26.284C117.071 26.284 118.691 27.04 119.267 29.128H111.527ZM139.177 21.496C136.765 21.496 135.001 22.324 133.813 23.692V14.8H128.413V40H133.813V38.308C135.001 39.676 136.765 40.504 139.177 40.504C143.893 40.504 147.781 36.364 147.781 31C147.781 25.636 143.893 21.496 139.177 21.496ZM138.097 35.392C135.613 35.392 133.813 33.7 133.813 31C133.813 28.3 135.613 26.608 138.097 26.608C140.581 26.608 142.381 28.3 142.381 31C142.381 33.7 140.581 35.392 138.097 35.392Z" fill="white"/>
<path d="M26.8916 7.00269L38.9197 27.836H14.8634L26.8916 7.00269Z" fill="white"/>
<path d="M13.8916 29.0027L25.9197 49.836H1.86344L13.8916 29.0027Z" fill="white"/>
<path d="M38.9052 28.9621L26.7576 49.726L14.8493 28.824L38.9052 28.9621Z" fill="white"/>
<path d="M13.8916 27.7792L1.86145 6.94697L25.9177 6.94468L13.8916 27.7792Z" fill="#52FFE0"/>
</svg>
