<svg width="30" height="30" viewBox="0 0 30 30" fill="none" xmlns="http://www.w3.org/2000/svg">
<path d="M7.91309 21.7294C7.91309 22.415 8.47266 22.9746 9.16113 22.9746H10.5879V26.5019C10.5879 27.3955 11.3057 28.1249 12.1875 28.1249C13.0723 28.1249 13.7871 27.3984 13.7871 26.5019V22.9716H16.2773V26.499C16.2773 27.3925 16.9951 28.122 17.877 28.122C18.7617 28.122 19.4766 27.3955 19.4766 26.499V22.9716H20.9033C21.5918 22.9716 22.1514 22.4121 22.1514 21.7265V10.1484H7.91309V21.7294ZM18.375 4.14839L19.6904 2.24409C19.7666 2.13276 19.749 1.98335 19.6465 1.9101C19.5439 1.83979 19.3975 1.87495 19.3213 1.98628L17.9561 3.96674C17.0566 3.61225 16.0547 3.41596 15.0029 3.41596C13.9512 3.41596 12.9492 3.61225 12.0498 3.96674L10.6846 1.98921C10.6084 1.87788 10.4619 1.83979 10.3594 1.91303C10.2568 1.98335 10.2393 2.12983 10.3154 2.24702L11.6309 4.15131C9.53906 5.12397 8.07422 6.96674 7.88672 9.12006H22.125C21.9316 6.96381 20.4639 5.12104 18.375 4.14839ZM11.9971 7.15131C11.8412 7.15131 11.6888 7.10509 11.5592 7.0185C11.4296 6.9319 11.3286 6.80882 11.269 6.66482C11.2093 6.52081 11.1937 6.36235 11.2241 6.20948C11.2545 6.05661 11.3296 5.91618 11.4398 5.80597C11.55 5.69575 11.6904 5.62069 11.8433 5.59029C11.9962 5.55988 12.1547 5.57548 12.2987 5.63513C12.4427 5.69478 12.5657 5.79579 12.6523 5.92539C12.7389 6.05499 12.7852 6.20736 12.7852 6.36323C12.7846 6.57208 12.7014 6.77221 12.5537 6.91989C12.4061 7.06757 12.2059 7.15077 11.9971 7.15131ZM18.1025 7.15131C17.9467 7.15131 17.7943 7.10509 17.6647 7.0185C17.5351 6.9319 17.4341 6.80882 17.3744 6.66482C17.3148 6.52081 17.2992 6.36235 17.3296 6.20948C17.36 6.05661 17.4351 5.91618 17.5453 5.80597C17.6555 5.69575 17.7959 5.62069 17.9488 5.59029C18.1017 5.55988 18.2601 5.57548 18.4041 5.63513C18.5481 5.69478 18.6712 5.79579 18.7578 5.92539C18.8444 6.05499 18.8906 6.20736 18.8906 6.36323C18.8901 6.57208 18.8069 6.77221 18.6592 6.91989C18.5115 7.06757 18.3114 7.15077 18.1025 7.15131ZM24.6475 10.1015C23.7627 10.1015 23.0478 10.8281 23.0478 11.7246V18.0644C23.0478 18.958 23.7656 19.6874 24.6475 19.6874C25.5322 19.6874 26.2471 18.9609 26.2471 18.0644V11.7216C26.25 10.8251 25.5352 10.1015 24.6475 10.1015ZM5.35254 10.1015C4.46777 10.1015 3.75293 10.8281 3.75293 11.7246V18.0644C3.75293 18.958 4.4707 19.6874 5.35254 19.6874C6.2373 19.6874 6.95215 18.9609 6.95215 18.0644V11.7216C6.95215 10.8251 6.23437 10.1015 5.35254 10.1015Z" fill="#1D1E22"/>
</svg>
