<svg width="30" height="30" viewBox="0 0 30 30" fill="none" xmlns="http://www.w3.org/2000/svg">
<path fill-rule="evenodd" clip-rule="evenodd" d="M1.875 15C1.875 14.7514 1.97377 14.5129 2.14959 14.3371C2.3254 14.1613 2.56386 14.0625 2.8125 14.0625H24.9244L19.0238 8.16377C18.8477 7.98774 18.7488 7.74898 18.7488 7.50002C18.7488 7.25107 18.8477 7.01231 19.0238 6.83627C19.1998 6.66024 19.4385 6.56134 19.6875 6.56134C19.9365 6.56134 20.1752 6.66024 20.3512 6.83627L27.8512 14.3363C27.9386 14.4234 28.0078 14.5268 28.0551 14.6407C28.1023 14.7546 28.1267 14.8767 28.1267 15C28.1267 15.1233 28.1023 15.2454 28.0551 15.3593C28.0078 15.4732 27.9386 15.5767 27.8512 15.6638L20.3512 23.1638C20.1752 23.3398 19.9365 23.4387 19.6875 23.4387C19.4385 23.4387 19.1998 23.3398 19.0238 23.1638C18.8477 22.9877 18.7488 22.749 18.7488 22.5C18.7488 22.2511 18.8477 22.0123 19.0238 21.8363L24.9244 15.9375H2.8125C2.56386 15.9375 2.3254 15.8388 2.14959 15.6629C1.97377 15.4871 1.875 15.2487 1.875 15Z" fill="white"/>
</svg>
