<svg width="31" height="30" viewBox="0 0 31 30" fill="none" xmlns="http://www.w3.org/2000/svg">
<path d="M7.5603 26.2497C7.31166 26.2497 7.07321 26.1509 6.89739 25.9751C6.72157 25.7993 6.6228 25.5609 6.6228 25.3122V4.68722C6.62283 4.52431 6.66531 4.36422 6.74605 4.22272C6.8268 4.08123 6.94302 3.96322 7.08326 3.88032C7.2235 3.79743 7.38292 3.75251 7.54581 3.74999C7.70871 3.74747 7.86944 3.78745 8.01218 3.86597L26.7622 14.1785C26.9092 14.2594 27.0317 14.3783 27.1171 14.5227C27.2025 14.6672 27.2475 14.8319 27.2475 14.9997C27.2475 15.1675 27.2025 15.3322 27.1171 15.4767C27.0317 15.6211 26.9092 15.74 26.7622 15.821L8.01218 26.1335C7.87376 26.2097 7.71832 26.2497 7.5603 26.2497Z" fill="white"/>
</svg>
