<svg width="24" height="24" viewBox="0 0 24 24" fill="none" xmlns="http://www.w3.org/2000/svg">
<path d="M19.59 6.69C18.5932 6.47079 17.6914 5.94144 17.0141 5.17789C16.3368 4.41435 15.9187 3.45587 15.82 2.44V2H12.37V15.67C12.3707 16.2766 12.1805 16.868 11.8264 17.3604C11.4723 17.8529 10.9723 18.2215 10.3971 18.414C9.82184 18.6065 9.20065 18.6131 8.62147 18.4329C8.04229 18.2527 7.53449 17.8948 7.16999 17.41C6.84344 16.9808 6.64348 16.4689 6.59272 15.932C6.54196 15.3951 6.64243 14.8548 6.88277 14.372C7.12311 13.8892 7.49372 13.4834 7.9527 13.2003C8.41169 12.9172 8.94072 12.7681 9.47999 12.77C9.77823 12.7683 10.075 12.8121 10.36 12.9V9.4C10.0283 9.35893 9.6941 9.34222 9.35999 9.35C8.1293 9.38288 6.93491 9.77393 5.92308 10.4753C4.91124 11.1766 4.12588 12.1578 3.66317 13.2986C3.20045 14.4395 3.08047 15.6905 3.31791 16.8986C3.55535 18.1066 4.1399 19.2191 4.99999 20.1C5.88148 20.9962 7.00948 21.6101 8.24069 21.8638C9.47189 22.1175 10.7507 21.9994 11.9146 21.5246C13.0786 21.0498 14.0751 20.2397 14.7776 19.1973C15.4801 18.1548 15.8569 16.9271 15.86 15.67V8.67C17.2515 9.66395 18.92 10.1956 20.63 10.19V6.79C20.2941 6.79139 19.959 6.75787 19.63 6.69H19.59Z" fill="#818698"/>
</svg>
