<svg width="20" height="20" viewBox="0 0 20 20" fill="none" xmlns="http://www.w3.org/2000/svg">
<path fill-rule="evenodd" clip-rule="evenodd" d="M17.5 3.125C17.5 2.95924 17.4341 2.80027 17.3169 2.68306C17.1997 2.56585 17.0408 2.5 16.875 2.5H9.375C9.20924 2.5 9.05026 2.56585 8.93305 2.68306C8.81584 2.80027 8.75 2.95924 8.75 3.125C8.75 3.29076 8.81584 3.44973 8.93305 3.56694C9.05026 3.68415 9.20924 3.75 9.375 3.75H15.3662L2.6825 16.4325C2.62439 16.4906 2.57829 16.5596 2.54684 16.6355C2.51539 16.7114 2.49921 16.7928 2.49921 16.875C2.49921 16.9572 2.51539 17.0386 2.54684 17.1145C2.57829 17.1904 2.62439 17.2594 2.6825 17.3175C2.74061 17.3756 2.80959 17.4217 2.88552 17.4532C2.96144 17.4846 3.04282 17.5008 3.125 17.5008C3.20718 17.5008 3.28855 17.4846 3.36448 17.4532C3.4404 17.4217 3.50939 17.3756 3.5675 17.3175L16.25 4.63375V10.625C16.25 10.7908 16.3158 10.9497 16.4331 11.0669C16.5503 11.1842 16.7092 11.25 16.875 11.25C17.0408 11.25 17.1997 11.1842 17.3169 11.0669C17.4341 10.9497 17.5 10.7908 17.5 10.625V3.125Z" fill="white"/>
</svg>
